<svg height="512" viewBox="0 0 64 64" width="512" xmlns="http://www.w3.org/2000/svg"><g id="Admin-Router-Network-Technology-Configuration"><path d="m41 49a4 4 0 1 1 0-8h12a4 4 0 1 1 0 8z" fill="#d8d7da"/><path d="m41 33a4 4 0 1 1 0-8h12a4 4 0 1 1 0 8z" fill="#d8d7da"/><path d="m41 41a4 4 0 1 1 0-8h12a4 4 0 1 1 0 8z" fill="#acabb1"/><path d="m61 49v4h-3-52-3v-4h2 6 16 6 8 12z" fill="#a97c50"/><path d="m6 53h52v8h-52z" fill="#c49a6c"/><circle cx="11" cy="22" fill="#ffb655" r="2"/><circle cx="27" cy="22" fill="#ffb655" r="2"/><path d="m22 29v3a2.772 2.772 0 0 1 -.18 1 2.988 2.988 0 0 1 -5.64 0 2.772 2.772 0 0 1 -.18-1v-3z" fill="#ffc477"/><path d="m33 40.87v8.13h-28v-8.13a6 6 0 0 1 2.5-4.88 6.445 6.445 0 0 1 1.02-.59l5.28-2.4 2.2-1a2.772 2.772 0 0 0 .18 1 2.988 2.988 0 0 0 5.64 0 2.772 2.772 0 0 0 .18-1l2.2 1 5.28 2.4a6.445 6.445 0 0 1 1.02.59 6 6 0 0 1 2.5 4.88z" fill="#3d9ae2"/><path d="m30.61 35.33-.11.66-1.5 9.01h-20l-1.5-9.01-.11-.66a2 2 0 0 1 1.97-2.33h19.28a2 2 0 0 1 1.97 2.33z" fill="#d8d7da"/><path d="m29 45v2a2.006 2.006 0 0 1 -2 2h-16a2.006 2.006 0 0 1 -2-2v-2z" fill="#acabb1"/><circle cx="19" cy="39" fill="#c6c5ca" r="2"/><path d="m22 29v2.32a6.958 6.958 0 0 1 -6 0v-2.32z" fill="#ffb655"/><path d="m26 20.27v2.73a5.529 5.529 0 0 1 -.04.71 6.937 6.937 0 0 1 -3.96 5.61 7.017 7.017 0 0 1 -7.95-1.37 6.938 6.938 0 0 1 -2.01-4.24 5.529 5.529 0 0 1 -.04-.71v-4h4.33a7.982 7.982 0 0 0 4.8-1.6l1.87-1.4.54 1.63a2.009 2.009 0 0 0 1.9 1.37h.56z" fill="#ffc477"/><path d="m28 14v3l-2 2h-.56a2.009 2.009 0 0 1 -1.9-1.37l-.54-1.63-1.87 1.4a7.982 7.982 0 0 1 -4.8 1.6h-4.33l-3-3 1-2-2-4h16a4 4 0 0 1 4 4z" fill="#57565c"/><path d="m6 53h52v2h-52z" fill="#b28355"/><path d="m15 21h2v2h-2z" fill="#ee8700"/><path d="m21 21h2v2h-2z" fill="#ee8700"/><g fill="#898890"><path d="m52 44h2v2h-2z"/><path d="m48 44h2v2h-2z"/><path d="m40 44h2v2h-2z"/><path d="m52 36h2v2h-2z"/><path d="m48 36h2v2h-2z"/><path d="m40 36h2v2h-2z"/><path d="m52 28h2v2h-2z"/><path d="m48 28h2v2h-2z"/><path d="m40 28h2v2h-2z"/></g></g></svg>