<?xml version="1.0"?>
<svg xmlns="http://www.w3.org/2000/svg" id="Computer-Engineer" viewBox="0 0 64 64" width="512" height="512"><path d="M61,12V41H3V12A4,4,0,0,1,7,8H57a3.995,3.995,0,0,1,4,4Z" style="fill:#78b9eb"/><path d="M61,12V41H28L59.83,9.17A4.025,4.025,0,0,1,61,12Z" style="fill:#5aaae7"/><path d="M43,58v3H21V58a1,1,0,0,1,1-1H42A1,1,0,0,1,43,58Z" style="fill:#787680"/><polygon points="40 57 24 57 25 49 39 49 40 57" style="fill:#898890"/><path d="M61,41v4a4,4,0,0,1-4,4H7a4,4,0,0,1-4-4V41H61Z" style="fill:#acabb1"/><polygon points="37 27 38 34 32 33 37 27" style="fill:#009986"/><polygon points="27 27 32 33 26 34 27 27" style="fill:#009986"/><path d="M38,34l-1-7a8,8,0,0,1,8,8v6H32V33Z" style="fill:#00ccb3"/><path d="M26,34l6-1v8H19V35a8,8,0,0,1,8-8Z" style="fill:#00b39d"/><polygon points="37 27 32 33 27 27 32 27 37 27" style="fill:#ffdaaa"/><path d="M38,15v4a6,6,0,0,1-12,0V15Z" style="fill:#ffdaaa"/><path d="M30,8v3H25a5.911,5.911,0,0,1,.81-3Z" style="fill:#ffb655"/><path d="M30,5.09V8H25.81A5.967,5.967,0,0,1,30,5.09Z" style="fill:#ffb655"/><path d="M39,11H34V8h4.19A5.857,5.857,0,0,1,39,11Z" style="fill:#ffb655"/><path d="M38.19,8H34V5.09a5.832,5.832,0,0,1,3.24,1.67A5.752,5.752,0,0,1,38.19,8Z" style="fill:#ffb655"/><path d="M39,11a2.015,2.015,0,0,1,2,2,2.006,2.006,0,0,1-2,2H25a2.015,2.015,0,0,1-2-2,2.006,2.006,0,0,1,2-2H39Z" style="fill:#ff9811"/><rect x="30" y="8" width="4" height="3" style="fill:#ffa733"/><path d="M34,5.09V8H30V4a1,1,0,0,1,1-1h2a1,1,0,0,1,1,1Z" style="fill:#ffa733"/><polygon points="39.25 51 24.75 51 25 49 39 49 39.25 51" style="fill:#787680"/><rect x="18" y="60" width="28" height="2" style="fill:#57565c"/><rect x="55" y="44" width="2" height="2" style="fill:#898890"/><rect x="39" y="35" width="2" height="6" style="fill:#00b39d"/><rect x="23" y="35" width="2" height="6" style="fill:#009986"/></svg>
