<svg id="Layer_1" data-name="Layer 1" xmlns="http://www.w3.org/2000/svg" viewBox="0 0 1219.79 517.34">
  <defs>
    <style>
      .cls-1 {
        fill: #003a51;
      }

      .cls-2 {
        font-size: 318.99px;
        fill: #59a4b5;
        font-family: AdobeArabic-Regular, Adobe Arabic;
      }

      .cls-3 {
        fill: #366c75;
      }

      .cls-4 {
        fill: #2e5d68;
      }

      .cls-5 {
        fill: #2b5566;
      }

      .cls-6 {
        fill: #01222b;
      }

      .cls-7 {
        fill: #32637c;
      }

      .cls-8 {
        fill: #a3c1d3;
      }

      .cls-9 {
        fill: #5dafc6;
      }

      .cls-10 {
        fill: #003547;
      }

      .cls-11 {
        fill: none;
      }
    </style>
  </defs>
  <title>KYBEX_Logo</title>
  <circle class="cls-1" cx="258.67" cy="258.67" r="258.67"/>
  <text class="cls-2" transform="translate(532.05 339.95) scale(0.93 1)">K<tspan class="cls-3" x="160.12" y="0">Y</tspan><tspan class="cls-4" x="310.58" y="0">B</tspan><tspan class="cls-5" x="449.21" y="0">E</tspan><tspan class="cls-6" x="583" y="0">X</tspan></text>
  <text x="-41.81" y="-339.81"/>  <circle class="cls-7" cx="258.81" cy="258.58" r="254.86"/>
  <path class="cls-8" d="M301,343.52c140.76,0,254.87,114.11,254.87,254.87S441.74,853.25,301,853.25" transform="translate(-41.81 -339.81)"/>
  <g>
    <path class="cls-9" d="M97.38,714.83,113.62,688A198.11,198.11,0,0,1,93.3,612.3H65.66A223.92,223.92,0,0,0,97.38,714.83Z" transform="translate(-41.81 -339.81)"/>
    <path class="cls-9" d="M116.34,505.39l-15.91-27.55A224,224,0,0,0,65.66,585.3H93.37A198.21,198.21,0,0,1,116.34,505.39Z" transform="translate(-41.81 -339.81)"/>
    <path class="cls-9" d="M93.37,585.3H65.66q-.41,6.71-.41,13.5t.41,13.5H93.3q-.42-6.43-.42-13Q92.88,592.25,93.37,585.3Z" transform="translate(-41.81 -339.81)"/>
  </g>
  <path class="cls-9" d="M269.42,827.48a219.12,219.12,0,0,1-26.31-3.28V697.71l26.31-33.11Z" transform="translate(-41.81 -339.81)"/>
  <path class="cls-9" d="M147.9,585.3H93.37q-.48,6.94-.49,14,0,6.56.42,13h70.29l-22.66-18.41Z" transform="translate(-41.81 -339.81)"/>
  <polygon class="cls-9" points="146.8 245.49 131.05 245.49 146.8 258.28 146.8 245.49"/>
  <g>
    <path class="cls-9" d="M247.35,518.59a199.82,199.82,0,0,1,8.16,26.11l13.91-11V374.43a227.57,227.57,0,0,0-26.31,4V521.84Z" transform="translate(-41.81 -339.81)"/>
    <path class="cls-9" d="M269.42,674.7H243.36l-.36-.29V815.6a227.31,227.31,0,0,0,26.42,4V674.7Z" transform="translate(-41.81 -339.81)"/>
  </g>
  <polygon class="cls-9" points="147.5 258.84 147.04 259.21 147.09 259.27 146.8 259.5 146.8 272.49 121.78 272.49 201.19 336.99 201.19 302.45 147.5 258.84"/>
  <polygon class="cls-9" points="227.61 337.28 227.61 324.22 226.13 322.71 201.19 302.45 201.19 336.99 201.55 337.28 227.61 337.28"/>
  <polygon class="cls-9" points="146.8 259.5 133.56 248.78 126.83 257.08 118.95 246.91 120.78 245.49 106.09 245.49 99.11 254.08 121.78 272.49 146.8 272.49 146.8 259.5"/>
  <polygon class="cls-9" points="146.8 259.5 147.09 259.27 147.04 259.21 147.5 258.84 146.8 258.28 146.8 259.5"/>
  <polygon class="cls-9" points="131.05 245.49 126.04 241.42 120.78 245.49 131.05 245.49"/>
  <polygon class="cls-9" points="131.05 245.49 120.78 245.49 118.95 246.91 126.83 257.08 133.56 248.78 146.8 259.5 146.8 258.28 131.05 245.49"/>
  <polygon class="cls-9" points="201.55 337.28 227.61 358.44 227.61 337.28 201.55 337.28"/>
  <polygon class="cls-9" points="133.88 268.86 116.78 246.35 211.35 174.49 227.61 194.4 133.88 268.86"/>
  <circle class="cls-10" cx="68.46" cy="150.09" r="20.64"/>
  <circle class="cls-10" cx="214.58" cy="38.27" r="20.64"/>
  <circle class="cls-10" cx="214.58" cy="478.88" r="20.64"/>
  <circle class="cls-9" cx="214.58" cy="479.81" r="4.98"/>
  <rect class="cls-10" x="256.78" y="393.39" width="0.71" height="135.33" transform="translate(472.46 582.29) rotate(180)"/>
  <rect class="cls-10" x="211.08" y="505.69" width="0.72" height="115.11" transform="translate(-150.94 732.54) rotate(-127.23)"/>
  <rect class="cls-10" x="210.89" y="575.75" width="0.71" height="115.96" transform="translate(-458.47 65.94) rotate(-51.61)"/>
  <rect class="cls-10" x="214.21" y="329.65" width="0.88" height="134.5"/>
  <rect class="cls-10" x="122.59" y="554.5" width="0.86" height="86.68" transform="translate(-516.64 381.05) rotate(-90)"/>
  <path class="cls-10" d="M109.05,683.48a20.48,20.48,0,0,0-12,2.87q3.13,7.65,6.83,15a5,5,0,0,1,3.69-1.72,5,5,0,0,1,5,4.75,5,5,0,0,1-4.41,5.18q1.77,3.21,3.65,6.35l-.41.68c-1.39-2.31-2.73-4.65-4-7a5,5,0,0,1-4-7.56q-3.78-7.49-7-15.28a20.65,20.65,0,1,0,12.71-3.28Z" transform="translate(-41.81 -339.81)"/>
  <path class="cls-9" d="M102.61,704.63a5,5,0,0,0,4.75,5q-2.07-3.74-4-7.56A5,5,0,0,0,102.61,704.63Z" transform="translate(-41.81 -339.81)"/>
  <path class="cls-10" d="M80.56,614.22v-.14h-.89a224.44,224.44,0,0,0,16.67,72.68c.22-.14.44-.28.67-.41A224.53,224.53,0,0,1,80.56,614.22Z" transform="translate(-41.81 -339.81)"/>
  <path class="cls-10" d="M107.36,709.6c1.31,2.36,2.65,4.7,4,7l.41-.68q-1.87-3.13-3.65-6.35a5.17,5.17,0,0,1-.57,0Z" transform="translate(-41.81 -339.81)"/>
  <path class="cls-10" d="M103.84,701.37q-3.69-7.36-6.83-15c-.23.13-.45.27-.67.41q3.22,7.8,7,15.28A4.6,4.6,0,0,1,103.84,701.37Z" transform="translate(-41.81 -339.81)"/>
  <path class="cls-10" d="M114.92,485.69l-.47-.77A206,206,0,0,0,79.67,587.08h.9A206,206,0,0,1,114.92,485.69Z" transform="translate(-41.81 -339.81)"/>
  <path class="cls-10" d="M80.16,600.72c0-4.53.14-9,.4-13.5a.71.71,0,0,0,0-.14h-.9q-.39,6.7-.4,13.5t.4,13.5h.89Q80.17,607.45,80.16,600.72Z" transform="translate(-41.81 -339.81)"/>
  <path class="cls-9" d="M112.57,704.4a5,5,0,0,0-5-4.75,5,5,0,0,0-3.69,1.72c1.38,2.77,2.83,5.51,4.32,8.21A5,5,0,0,0,112.57,704.4Z" transform="translate(-41.81 -339.81)"/>
  <circle class="cls-9" cx="68.46" cy="150.09" r="4.98"/>
  <circle class="cls-9" cx="65.55" cy="364.81" r="4.98"/>
  <circle class="cls-9" cx="214.4" cy="38.27" r="4.98"/>
  <path class="cls-10" d="M326,372.73V822.56a227.49,227.49,0,0,0,26.31-3.19V375.92A225.32,225.32,0,0,0,326,372.73Z" transform="translate(-41.81 -339.81)"/>
  <rect class="cls-10" x="285.13" y="249.9" width="109.1" height="27"/>
  <path class="cls-11" d="M479.69,482.1V713.19a203.89,203.89,0,0,0,0-231.09Z" transform="translate(-41.81 -339.81)"/>
  <path class="cls-10" d="M443.19,603.72l67.2-52a203.05,203.05,0,0,0-8.46-27.59l-86.58,67,7.87,10.18L430,593Z" transform="translate(-41.81 -339.81)"/>
  <path class="cls-10" d="M443.19,603.72l-11.32,8.76-8.65-11.17L413,614l84.28,68.29a201.77,201.77,0,0,0,10-26.65Z" transform="translate(-41.81 -339.81)"/>
  <polygon class="cls-10" points="401.38 263.92 388.14 253.19 381.41 261.5 390.05 272.67 401.38 263.92"/>
  <path class="cls-10" d="M479.69,447.32V482.1a203.31,203.31,0,0,1,22.24,42l17.73-13.71A225.72,225.72,0,0,0,479.69,447.32Z" transform="translate(-41.81 -339.81)"/>
  <path class="cls-10" d="M479.69,713.19V748a225.79,225.79,0,0,0,34.8-51.72l-17.26-14A203.41,203.41,0,0,1,479.69,713.19Z" transform="translate(-41.81 -339.81)"/>
  <path class="cls-10" d="M529,537.35a225.56,225.56,0,0,0-9.34-26.91l-17.73,13.71a203.05,203.05,0,0,1,8.46,27.59Z" transform="translate(-41.81 -339.81)"/>
  <path class="cls-10" d="M507.23,655.62a201.77,201.77,0,0,1-10,26.65l17.26,14a222.63,222.63,0,0,0,10.73-26Z" transform="translate(-41.81 -339.81)"/>
  <circle class="cls-9" cx="297.33" cy="39.49" r="20.64"/>
  <circle class="cls-9" cx="297.33" cy="481.41" r="20.64"/>
  <circle class="cls-9" cx="434.27" cy="393.54" r="20.64"/>
  <circle class="cls-9" cx="438.6" cy="123.77" r="20.64"/>
  <circle class="cls-9" cx="302.31" cy="52.57" r="4.98"/>
  <circle class="cls-10" cx="297.33" cy="38" r="4.98"/>
  <circle class="cls-10" cx="297.33" cy="482.54" r="4.98"/>
  <circle class="cls-10" cx="438.65" cy="123.77" r="4.98"/>
  <circle class="cls-10" cx="434.44" cy="394.54" r="4.98"/>
  <rect class="cls-1" x="257.75" y="3.71" width="3.76" height="513.51"/>
</svg>
