<svg width="114" height="42" viewBox="0 0 114 42" fill="none" xmlns="http://www.w3.org/2000/svg">
<g clip-path="url(#clip0_2585_125768)">
<path d="M26.1341 23.807H39.4946C39.8256 22.3659 40 21.5452 40 20.001C40 8.85874 30.8916 -0.154588 19.7156 0.00201012C8.94398 0.152662 0.152662 8.94398 0.00201012 19.7156C-0.154588 30.8916 8.85874 40 20.001 40C25.2659 40 32.7212 39.1457 37.8116 28.9549L29.9995 29.0223L28.6357 30.3365C26.1559 32.4139 22.9149 33.6112 19.3944 33.4566C12.4843 33.1533 6.87252 27.5614 6.54545 20.6532C6.18071 12.9164 11.9491 6.50977 20.001 6.52959C26.5048 6.54545 31.9342 11.1423 33.1949 17.2774H26.1341V23.807Z" fill="url(#paint0_angular_2585_125768)"/>
<path d="M14.857 11.1958C15.081 11.0828 15.1801 10.8172 15.085 10.5853C14.9779 10.3296 14.6766 10.2166 14.4308 10.3415C11.7805 11.6914 10.0421 14.7302 10.2621 17.6243C10.2839 17.8998 10.5397 18.098 10.8132 18.0544C11.061 18.0148 11.2315 17.7928 11.2136 17.543C11.0213 15.0216 12.5417 12.3733 14.859 11.1938L14.857 11.1958Z" fill="url(#paint1_angular_2585_125768)"/>
</g>
<path d="M53.42 21C53.2587 21 53.134 20.956 53.046 20.868C52.958 20.7653 52.914 20.6407 52.914 20.494V6.128C52.914 5.96667 52.958 5.842 53.046 5.754C53.134 5.65133 53.2587 5.6 53.42 5.6H59.448C60.548 5.6 61.4427 5.78333 62.132 6.15C62.836 6.502 63.3493 6.986 63.672 7.602C64.0093 8.218 64.178 8.90733 64.178 9.67C64.178 10.2713 64.0753 10.792 63.87 11.232C63.6793 11.6573 63.4373 12.0093 63.144 12.288C62.8507 12.552 62.5647 12.7573 62.286 12.904C62.858 13.1827 63.364 13.6373 63.804 14.268C64.2587 14.8987 64.486 15.6613 64.486 16.556C64.486 17.3627 64.3027 18.1033 63.936 18.778C63.5693 19.4527 63.0193 19.9953 62.286 20.406C61.5673 20.802 60.6727 21 59.602 21H53.42ZM55.07 19.218H59.316C60.2693 19.218 61.0027 18.9613 61.516 18.448C62.0293 17.9347 62.286 17.304 62.286 16.556C62.286 15.7787 62.0293 15.1407 61.516 14.642C61.0027 14.1287 60.2693 13.872 59.316 13.872H55.07V19.218ZM55.07 12.112H59.118C60.0567 12.112 60.768 11.8993 61.252 11.474C61.736 11.034 61.978 10.44 61.978 9.692C61.978 8.944 61.736 8.372 61.252 7.976C60.768 7.58 60.0567 7.382 59.118 7.382H55.07V12.112ZM67.8723 21C67.7256 21 67.6009 20.956 67.4983 20.868C67.4103 20.7653 67.3663 20.6407 67.3663 20.494V10.066C67.3663 9.91933 67.4103 9.802 67.4983 9.714C67.6009 9.61133 67.7256 9.56 67.8723 9.56H68.9283C69.0749 9.56 69.1923 9.61133 69.2803 9.714C69.3683 9.802 69.4123 9.91933 69.4123 10.066V20.494C69.4123 20.6407 69.3683 20.7653 69.2803 20.868C69.1923 20.956 69.0749 21 68.9283 21H67.8723ZM67.6963 7.426C67.5496 7.426 67.4249 7.382 67.3223 7.294C67.2343 7.19133 67.1903 7.06667 67.1903 6.92V5.732C67.1903 5.58533 67.2343 5.468 67.3223 5.38C67.4249 5.27733 67.5496 5.226 67.6963 5.226H69.0823C69.2289 5.226 69.3463 5.27733 69.4343 5.38C69.5369 5.468 69.5883 5.58533 69.5883 5.732V6.92C69.5883 7.06667 69.5369 7.19133 69.4343 7.294C69.3463 7.382 69.2289 7.426 69.0823 7.426H67.6963ZM77.1604 21C76.3391 21 75.6717 20.846 75.1584 20.538C74.6451 20.2153 74.2711 19.768 74.0364 19.196C73.8017 18.6093 73.6844 17.92 73.6844 17.128V11.32H71.9684C71.8217 11.32 71.6971 11.276 71.5944 11.188C71.5064 11.0853 71.4624 10.9607 71.4624 10.814V10.066C71.4624 9.91933 71.5064 9.802 71.5944 9.714C71.6971 9.61133 71.8217 9.56 71.9684 9.56H73.6844V5.886C73.6844 5.73933 73.7284 5.622 73.8164 5.534C73.9191 5.43133 74.0437 5.38 74.1904 5.38H75.2244C75.3711 5.38 75.4884 5.43133 75.5764 5.534C75.6791 5.622 75.7304 5.73933 75.7304 5.886V9.56H78.4584C78.6051 9.56 78.7224 9.61133 78.8104 9.714C78.9131 9.802 78.9644 9.91933 78.9644 10.066V10.814C78.9644 10.9607 78.9131 11.0853 78.8104 11.188C78.7224 11.276 78.6051 11.32 78.4584 11.32H75.7304V16.974C75.7304 17.6633 75.8477 18.206 76.0824 18.602C76.3171 18.998 76.7351 19.196 77.3364 19.196H78.6784C78.8251 19.196 78.9424 19.2473 79.0304 19.35C79.1331 19.438 79.1844 19.5553 79.1844 19.702V20.494C79.1844 20.6407 79.1331 20.7653 79.0304 20.868C78.9424 20.956 78.8251 21 78.6784 21H77.1604ZM84.4782 21.22C83.7448 21.22 83.0775 21.0733 82.4762 20.78C81.8748 20.4867 81.3908 20.0907 81.0242 19.592C80.6575 19.0933 80.4742 18.5287 80.4742 17.898C80.4742 16.886 80.8848 16.0793 81.7062 15.478C82.5275 14.8767 83.5982 14.4807 84.9182 14.29L88.1962 13.828V13.19C88.1962 12.486 87.9908 11.936 87.5802 11.54C87.1842 11.144 86.5315 10.946 85.6222 10.946C84.9622 10.946 84.4268 11.078 84.0162 11.342C83.6202 11.606 83.3415 11.9433 83.1802 12.354C83.0922 12.574 82.9382 12.684 82.7182 12.684H81.7282C81.5668 12.684 81.4422 12.64 81.3542 12.552C81.2808 12.4493 81.2442 12.332 81.2442 12.2C81.2442 11.98 81.3248 11.7087 81.4862 11.386C81.6622 11.0633 81.9262 10.748 82.2782 10.44C82.6302 10.132 83.0775 9.87533 83.6202 9.67C84.1775 9.45 84.8522 9.34 85.6442 9.34C86.5242 9.34 87.2648 9.45733 87.8662 9.692C88.4675 9.912 88.9368 10.2127 89.2742 10.594C89.6262 10.9753 89.8755 11.408 90.0222 11.892C90.1835 12.376 90.2642 12.8673 90.2642 13.366V20.494C90.2642 20.6407 90.2128 20.7653 90.1102 20.868C90.0222 20.956 89.9048 21 89.7582 21H88.7462C88.5848 21 88.4602 20.956 88.3722 20.868C88.2842 20.7653 88.2402 20.6407 88.2402 20.494V19.548C88.0495 19.812 87.7928 20.076 87.4702 20.34C87.1475 20.5893 86.7442 20.802 86.2602 20.978C85.7762 21.1393 85.1822 21.22 84.4782 21.22ZM84.9402 19.57C85.5415 19.57 86.0915 19.4453 86.5902 19.196C87.0888 18.932 87.4775 18.5287 87.7562 17.986C88.0495 17.4433 88.1962 16.7613 88.1962 15.94V15.324L85.6442 15.698C84.6028 15.8447 83.8182 16.094 83.2902 16.446C82.7622 16.7833 82.4982 17.216 82.4982 17.744C82.4982 18.1547 82.6155 18.4993 82.8502 18.778C83.0995 19.042 83.4075 19.24 83.7742 19.372C84.1555 19.504 84.5442 19.57 84.9402 19.57ZM93.9328 21C93.7862 21 93.6615 20.956 93.5588 20.868C93.4708 20.7653 93.4268 20.6407 93.4268 20.494V10.066C93.4268 9.91933 93.4708 9.802 93.5588 9.714C93.6615 9.61133 93.7862 9.56 93.9328 9.56H94.9888C95.1355 9.56 95.2528 9.61133 95.3408 9.714C95.4288 9.802 95.4728 9.91933 95.4728 10.066V20.494C95.4728 20.6407 95.4288 20.7653 95.3408 20.868C95.2528 20.956 95.1355 21 94.9888 21H93.9328ZM93.7568 7.426C93.6102 7.426 93.4855 7.382 93.3828 7.294C93.2948 7.19133 93.2508 7.06667 93.2508 6.92V5.732C93.2508 5.58533 93.2948 5.468 93.3828 5.38C93.4855 5.27733 93.6102 5.226 93.7568 5.226H95.1428C95.2895 5.226 95.4068 5.27733 95.4948 5.38C95.5975 5.468 95.6488 5.58533 95.6488 5.732V6.92C95.6488 7.06667 95.5975 7.19133 95.4948 7.294C95.4068 7.382 95.2895 7.426 95.1428 7.426H93.7568ZM99.283 21C99.1363 21 99.0116 20.956 98.909 20.868C98.821 20.7653 98.777 20.6407 98.777 20.494V5.886C98.777 5.73933 98.821 5.622 98.909 5.534C99.0116 5.43133 99.1363 5.38 99.283 5.38H100.317C100.478 5.38 100.603 5.43133 100.691 5.534C100.779 5.622 100.823 5.73933 100.823 5.886V20.494C100.823 20.6407 100.779 20.7653 100.691 20.868C100.603 20.956 100.478 21 100.317 21H99.283ZM108.065 21.22C107.243 21.22 106.539 21.1173 105.953 20.912C105.366 20.7067 104.889 20.4573 104.523 20.164C104.156 19.8707 103.877 19.5773 103.687 19.284C103.511 18.9907 103.415 18.756 103.401 18.58C103.386 18.4187 103.437 18.294 103.555 18.206C103.672 18.118 103.789 18.074 103.907 18.074H104.875C104.963 18.074 105.029 18.0887 105.073 18.118C105.131 18.1327 105.205 18.1913 105.293 18.294C105.483 18.4993 105.696 18.7047 105.931 18.91C106.165 19.1153 106.451 19.284 106.789 19.416C107.141 19.548 107.573 19.614 108.087 19.614C108.835 19.614 109.451 19.4747 109.935 19.196C110.419 18.9027 110.661 18.4773 110.661 17.92C110.661 17.5533 110.558 17.26 110.353 17.04C110.162 16.82 109.81 16.622 109.297 16.446C108.798 16.27 108.109 16.0867 107.229 15.896C106.349 15.6907 105.652 15.4413 105.139 15.148C104.625 14.84 104.259 14.4807 104.039 14.07C103.819 13.6447 103.709 13.168 103.709 12.64C103.709 12.0973 103.87 11.5767 104.193 11.078C104.515 10.5647 104.985 10.1467 105.601 9.824C106.231 9.50133 107.016 9.34 107.955 9.34C108.717 9.34 109.37 9.43533 109.913 9.626C110.455 9.81667 110.903 10.0587 111.255 10.352C111.607 10.6307 111.871 10.9093 112.047 11.188C112.223 11.4667 112.318 11.7013 112.333 11.892C112.347 12.0387 112.303 12.1633 112.201 12.266C112.098 12.354 111.981 12.398 111.849 12.398H110.925C110.822 12.398 110.734 12.376 110.661 12.332C110.602 12.288 110.543 12.2367 110.485 12.178C110.338 11.9873 110.162 11.7967 109.957 11.606C109.766 11.4153 109.509 11.2613 109.187 11.144C108.879 11.012 108.468 10.946 107.955 10.946C107.221 10.946 106.671 11.1 106.305 11.408C105.938 11.716 105.755 12.1047 105.755 12.574C105.755 12.8527 105.835 13.102 105.997 13.322C106.158 13.542 106.466 13.74 106.921 13.916C107.375 14.092 108.05 14.2827 108.945 14.488C109.913 14.6787 110.675 14.9353 111.233 15.258C111.79 15.5807 112.186 15.9547 112.421 16.38C112.655 16.8053 112.773 17.2967 112.773 17.854C112.773 18.47 112.589 19.0347 112.223 19.548C111.871 20.0613 111.343 20.472 110.639 20.78C109.949 21.0733 109.091 21.22 108.065 21.22Z" fill="#18B154"/>
<path opacity="0.8" d="M57.4102 37.0801V38H52.8926V37.0801H57.4102ZM53.1211 29.4688V38H51.9902V29.4688H53.1211ZM56.8125 33.1367V34.0566H52.8926V33.1367H56.8125ZM57.3516 29.4688V30.3945H52.8926V29.4688H57.3516ZM59.7789 31.6602L61.1676 33.9688L62.5738 31.6602H63.8453L61.7711 34.7891L63.9098 38H62.6559L61.191 35.6211L59.7262 38H58.4664L60.5992 34.7891L58.5309 31.6602H59.7789ZM66.4836 32.8789V40.4375H65.3938V31.6602H66.3898L66.4836 32.8789ZM70.7551 34.7773V34.9004C70.7551 35.3613 70.7004 35.7891 70.591 36.1836C70.4816 36.5742 70.3215 36.9141 70.1105 37.2031C69.9035 37.4922 69.6477 37.7168 69.343 37.877C69.0383 38.0371 68.6887 38.1172 68.2941 38.1172C67.8918 38.1172 67.5363 38.0508 67.2277 37.918C66.9191 37.7852 66.6574 37.5918 66.4426 37.3379C66.2277 37.084 66.0559 36.7793 65.927 36.4238C65.802 36.0684 65.716 35.668 65.6691 35.2227V34.5664C65.716 34.0977 65.8039 33.6777 65.9328 33.3066C66.0617 32.9355 66.2316 32.6191 66.4426 32.3574C66.6574 32.0918 66.9172 31.8906 67.2219 31.7539C67.5266 31.6133 67.8781 31.543 68.2766 31.543C68.675 31.543 69.0285 31.6211 69.3371 31.7773C69.6457 31.9297 69.9055 32.1484 70.1164 32.4336C70.3273 32.7188 70.4855 33.0605 70.591 33.459C70.7004 33.8535 70.7551 34.293 70.7551 34.7773ZM69.6652 34.9004V34.7773C69.6652 34.4609 69.632 34.1641 69.5656 33.8867C69.4992 33.6055 69.3957 33.3594 69.2551 33.1484C69.1184 32.9336 68.9426 32.7656 68.7277 32.6445C68.5129 32.5195 68.257 32.457 67.9602 32.457C67.6867 32.457 67.4484 32.5039 67.2453 32.5977C67.0461 32.6914 66.8762 32.8184 66.7355 32.9785C66.5949 33.1348 66.4797 33.3145 66.3898 33.5176C66.3039 33.7168 66.2395 33.9238 66.1965 34.1387V35.6562C66.2746 35.9297 66.384 36.1875 66.5246 36.4297C66.6652 36.668 66.8527 36.8613 67.0871 37.0098C67.3215 37.1543 67.6164 37.2266 67.9719 37.2266C68.2648 37.2266 68.5168 37.166 68.7277 37.0449C68.9426 36.9199 69.1184 36.75 69.2551 36.5352C69.3957 36.3203 69.4992 36.0742 69.5656 35.7969C69.632 35.5156 69.6652 35.2168 69.6652 34.9004ZM73.7156 29V38H72.6258V29H73.7156ZM75.5688 34.9004V34.7656C75.5688 34.3086 75.6352 33.8848 75.768 33.4941C75.9008 33.0996 76.0922 32.7578 76.3422 32.4688C76.5922 32.1758 76.8949 31.9492 77.2504 31.7891C77.6059 31.625 78.0043 31.543 78.4457 31.543C78.891 31.543 79.2914 31.625 79.6469 31.7891C80.0063 31.9492 80.3109 32.1758 80.5609 32.4688C80.8148 32.7578 81.0082 33.0996 81.141 33.4941C81.2738 33.8848 81.3402 34.3086 81.3402 34.7656V34.9004C81.3402 35.3574 81.2738 35.7812 81.141 36.1719C81.0082 36.5625 80.8148 36.9043 80.5609 37.1973C80.3109 37.4863 80.0082 37.7129 79.6527 37.877C79.3012 38.0371 78.9027 38.1172 78.4574 38.1172C78.0121 38.1172 77.6117 38.0371 77.2563 37.877C76.9008 37.7129 76.5961 37.4863 76.3422 37.1973C76.0922 36.9043 75.9008 36.5625 75.768 36.1719C75.6352 35.7812 75.5688 35.3574 75.5688 34.9004ZM76.6527 34.7656V34.9004C76.6527 35.2168 76.6898 35.5156 76.7641 35.7969C76.8383 36.0742 76.9496 36.3203 77.098 36.5352C77.2504 36.75 77.4398 36.9199 77.6664 37.0449C77.893 37.166 78.1566 37.2266 78.4574 37.2266C78.7543 37.2266 79.0141 37.166 79.2367 37.0449C79.4633 36.9199 79.6508 36.75 79.7992 36.5352C79.9477 36.3203 80.059 36.0742 80.1332 35.7969C80.2113 35.5156 80.2504 35.2168 80.2504 34.9004V34.7656C80.2504 34.4531 80.2113 34.1582 80.1332 33.8809C80.059 33.5996 79.9457 33.3516 79.7934 33.1367C79.6449 32.918 79.4574 32.7461 79.2309 32.6211C79.0082 32.4961 78.7465 32.4336 78.4457 32.4336C78.1488 32.4336 77.8871 32.4961 77.6605 32.6211C77.4379 32.7461 77.2504 32.918 77.098 33.1367C76.9496 33.3516 76.8383 33.5996 76.7641 33.8809C76.6898 34.1582 76.6527 34.4531 76.6527 34.7656ZM84.1836 32.6562V38H83.0996V31.6602H84.1543L84.1836 32.6562ZM86.1641 31.625L86.1582 32.6328C86.0684 32.6133 85.9824 32.6016 85.9004 32.5977C85.8223 32.5898 85.7324 32.5859 85.6309 32.5859C85.3809 32.5859 85.1602 32.625 84.9688 32.7031C84.7773 32.7812 84.6152 32.8906 84.4824 33.0312C84.3496 33.1719 84.2441 33.3398 84.166 33.5352C84.0918 33.7266 84.043 33.9375 84.0195 34.168L83.7148 34.3438C83.7148 33.9609 83.752 33.6016 83.8262 33.2656C83.9043 32.9297 84.0234 32.6328 84.1836 32.375C84.3438 32.1133 84.5469 31.9102 84.793 31.7656C85.043 31.6172 85.3398 31.543 85.6836 31.543C85.7617 31.543 85.8516 31.5527 85.9531 31.5723C86.0547 31.5879 86.125 31.6055 86.1641 31.625ZM90.0797 38.1172C89.6383 38.1172 89.2379 38.043 88.8785 37.8945C88.523 37.7422 88.2164 37.5293 87.9586 37.2559C87.7047 36.9824 87.5094 36.6582 87.3727 36.2832C87.2359 35.9082 87.1676 35.498 87.1676 35.0527V34.8066C87.1676 34.291 87.2438 33.832 87.3961 33.4297C87.5484 33.0234 87.7555 32.6797 88.0172 32.3984C88.2789 32.1172 88.5758 31.9043 88.9078 31.7598C89.2398 31.6152 89.5836 31.543 89.9391 31.543C90.3922 31.543 90.7828 31.6211 91.1109 31.7773C91.443 31.9336 91.7145 32.1523 91.9254 32.4336C92.1363 32.7109 92.2926 33.0391 92.3941 33.418C92.4957 33.793 92.5465 34.2031 92.5465 34.6484V35.1348H87.8121V34.25H91.4625V34.168C91.4469 33.8867 91.3883 33.6133 91.2867 33.3477C91.1891 33.082 91.0328 32.8633 90.818 32.6914C90.6031 32.5195 90.3102 32.4336 89.9391 32.4336C89.693 32.4336 89.4664 32.4863 89.2594 32.5918C89.0523 32.6934 88.8746 32.8457 88.7262 33.0488C88.5777 33.252 88.4625 33.5 88.3805 33.793C88.2984 34.0859 88.2574 34.4238 88.2574 34.8066V35.0527C88.2574 35.3535 88.2984 35.6367 88.3805 35.9023C88.4664 36.1641 88.5895 36.3945 88.7496 36.5938C88.9137 36.793 89.1109 36.9492 89.3414 37.0625C89.5758 37.1758 89.8414 37.2324 90.1383 37.2324C90.5211 37.2324 90.8453 37.1543 91.1109 36.998C91.3766 36.8418 91.609 36.6328 91.8082 36.3711L92.4645 36.8926C92.3277 37.0996 92.1539 37.2969 91.943 37.4844C91.732 37.6719 91.4723 37.8242 91.1637 37.9414C90.859 38.0586 90.4977 38.1172 90.0797 38.1172ZM95.2961 32.6562V38H94.2121V31.6602H95.2668L95.2961 32.6562ZM97.2766 31.625L97.2707 32.6328C97.1809 32.6133 97.0949 32.6016 97.0129 32.5977C96.9348 32.5898 96.8449 32.5859 96.7434 32.5859C96.4934 32.5859 96.2727 32.625 96.0812 32.7031C95.8898 32.7812 95.7277 32.8906 95.5949 33.0312C95.4621 33.1719 95.3566 33.3398 95.2785 33.5352C95.2043 33.7266 95.1555 33.9375 95.132 34.168L94.8273 34.3438C94.8273 33.9609 94.8645 33.6016 94.9387 33.2656C95.0168 32.9297 95.1359 32.6328 95.2961 32.375C95.4562 32.1133 95.6594 31.9102 95.9055 31.7656C96.1555 31.6172 96.4523 31.543 96.7961 31.543C96.8742 31.543 96.9641 31.5527 97.0656 31.5723C97.1672 31.5879 97.2375 31.6055 97.2766 31.625Z" fill="#18B154"/>
<defs>
<radialGradient id="paint0_angular_2585_125768" cx="0" cy="0" r="1" gradientUnits="userSpaceOnUse" gradientTransform="translate(20 22.6667) rotate(17.8787) scale(21.7153)">
<stop stop-color="#18B154"/>
<stop offset="1" stop-color="#117C3B"/>
</radialGradient>
<radialGradient id="paint1_angular_2585_125768" cx="0" cy="0" r="1" gradientUnits="userSpaceOnUse" gradientTransform="translate(12.6822 14.6934) rotate(27.1973) scale(2.83336 3.94222)">
<stop stop-color="#18B154"/>
<stop offset="1" stop-color="#117C3B"/>
</radialGradient>
<clipPath id="clip0_2585_125768">
<rect width="40" height="40" fill="white"/>
</clipPath>
</defs>
</svg>
